<?xml version="1.0" standalone="no"?>
<!DOCTYPE svg PUBLIC "-//W3C//DTD SVG 20010904//EN"
 "http://www.w3.org/TR/2001/REC-SVG-20010904/DTD/svg10.dtd">
<svg version="1.0" xmlns="http://www.w3.org/2000/svg"
 width="512.000000pt" height="512.000000pt" viewBox="0 0 512.000000 512.000000"
 preserveAspectRatio="xMidYMid meet">

<g transform="translate(0.000000,512.000000) scale(0.100000,-0.100000)"
fill="#000000" stroke="none">
<path d="M2495 4786 c-16 -8 -474 -459 -1017 -1003 -877 -879 -987 -992 -993
-1025 -10 -54 2 -102 32 -139 50 -59 53 -59 508 -59 l415 0 0 -824 c0 -917 -3
-877 69 -972 23 -31 59 -60 101 -83 l65 -36 885 0 885 0 63 34 c70 38 100 69
140 145 l27 51 3 843 3 842 415 0 c454 0 457 0 507 59 30 37 42 85 32 139 -6
33 -116 146 -993 1026 -577 577 -1000 994 -1019 1002 -40 17 -89 17 -128 0z"/>
</g>
</svg>
